<?xml version="1.0" encoding="UTF-8" standalone="no"?>
<svg
   width="3.9000003in"
   height="3.9000003in"
   viewBox="0 0 1170.0001 1170.0001"
   version="1.1"
   id="svg11508"
   sodipodi:docname="logo.svg"
   inkscape:version="1.2.2 (1:1.2.2+202212051552+b0a8486541)"
   xmlns:inkscape="http://www.inkscape.org/namespaces/inkscape"
   xmlns:sodipodi="http://sodipodi.sourceforge.net/DTD/sodipodi-0.dtd"
   xmlns="http://www.w3.org/2000/svg"
   xmlns:svg="http://www.w3.org/2000/svg">
  <defs
     id="defs11512" />
  <sodipodi:namedview
     id="namedview11510"
     pagecolor="#ffffff"
     bordercolor="#000000"
     borderopacity="0.25"
     inkscape:showpageshadow="2"
     inkscape:pageopacity="0.0"
     inkscape:pagecheckerboard="0"
     inkscape:deskcolor="#d1d1d1"
     inkscape:document-units="in"
     showgrid="false"
     inkscape:zoom="2.7430555"
     inkscape:cx="144.36456"
     inkscape:cy="187.2"
     inkscape:window-width="2560"
     inkscape:window-height="1350"
     inkscape:window-x="0"
     inkscape:window-y="25"
     inkscape:window-maximized="1"
     inkscape:current-layer="svg11508" />
  <path
     id="Selection #1"
     fill="none"
     stroke="black"
     stroke-width="1"
     d="m 636,1170 c 5.52,-20.82 4,-42.68 4,-64 0,-23.69 0.92,-47.84 -4.89,-71 C 622.87,986.28 585.47,945.34 538,928.86 510.53,919.33 486.47,920 458,920 c 0,0 -84,0 -84,0 0,0 -133,0 -133,0 -14.27,0 -35.06,3.84 -40.21,-14 -0.89,-3.07 -0.79,-5.85 -0.79,-9 0,0 0,-56 0,-56 0.18,-14.96 8.91,-20.98 23,-21 0,0 178,0 178,0 0,0 168,0 168,0 0,0 32,0 32,0 6.59,-0.08 12.34,-1.07 16.28,-7.02 2.73,-4.11 2.71,-9.24 2.72,-13.98 0,0 0,-79 0,-79 -0.07,-15.48 -6.08,-19.98 -21,-20 0,0 -365,0 -365,0 0,0 -12,0.91 -12,0.91 -54.41,3.81 -101.52,35.07 -126.03,84.09 -7.54,15.08 -13.19,34.19 -14.93,51 0,0 0,8 0,8 0,0 -1.04,12 -1.04,12 -0.04,22.87 -0.77,50.03 5.72,72 5.04,17.06 10.33,29.05 20.14,44 6.44,9.81 12.88,16.78 21.14,25 23.59,23.48 55.09,37.77 88,41.9 0,0 9,0 9,0 0,0 11,1.1 11,1.1 0,0 36,0 36,0 0,0 82,0 82,0 0,0 127,0 127,0 13.59,0 34.12,-3.86 39.2,13 0.9,2.98 0.8,5.93 0.8,9 0,0 0,85 0,85 -0.02,15.92 -7.08,22.98 -23,23 0,0 -383,0 -383,0 0,0 -40,0 -40,0 0,0 -19,0 -19,0 -16.41,-0.08 -33.08,-9.04 -42.96,-22 -3.27,-4.29 -5.99,-9.01 -8.03,-14 -2.94,-7.2 -4,-12.26 -4.01,-20 0,0 0,-855 0,-855 C 0,259 0,95 0,95 0,95 0,68 0,68 0,47.65 0.18,35.6 14.44,19.01 24.04,7.85 40.24,0.07 55,0 c 0,0 25,0 25,0 0,0 0,284 0,284 0,0 0.66,11 0.66,11 0,0 -0.66,11 -0.66,11 0,0 0,188 0,188 0,0 0.91,12 0.91,12 0.71,10.36 1.42,18.8 3.98,29 11.62,46.25 45.96,85.58 90.11,103.55 12.32,5.01 27.75,9.01 41,10.41 0,0 8,0 8,0 0,0 12,1.04 12,1.04 0,0 188,0 188,0 29.41,0 73.57,1.99 101,-4.89 21.65,-5.44 41.69,-15.92 59,-29.91 8.73,-7.06 18.3,-17.25 25.12,-26.2 12.04,-15.81 21.64,-35.62 26.23,-55 6.81,-28.78 4.65,-77.9 4.65,-109 0,0 0,-90 0,-90 0,-23.38 0.84,-47.15 -4.89,-70 -8.56,-34.05 -29.15,-63.82 -57.11,-84.87 -11.58,-8.72 -25.35,-16.03 -39,-20.91 -15.47,-5.54 -26.81,-7.2 -43,-8.31 0,0 -12,-0.91 -12,-0.91 0,0 -284,0 -284,0 0,0 0,-150 0,-150 0,0 540,0 540,0 0,0 0,100 0,100 0,0 106,0 106,0 10.97,0 29.03,3.29 33.2,-10 0.9,-2.88 0.8,-6.01 0.8,-9 0,0 0,-81 0,-81 0,0 234,0 234,0 30.07,0.05 55.95,25.93 56,56 0,0 0,224 0,224 0,0 -192,0 -192,0 0,0 -39,0 -39,0 -4.64,0.01 -8.96,-0.12 -12.96,2.7 -5.89,4.15 -6.03,9.82 -6.04,16.3 0,0 0,81 0,81 0,0 250,0 250,0 0,0 0,346 0,346 -20.33,-10.88 -30.78,-17.31 -54,-22.34 -25.12,-5.44 -78.09,-3.66 -106,-3.66 0,0 -170,0 -170,0 0,0 -12,0.91 -12,0.91 -7.83,0.54 -15.24,0.98 -23,2.54 -30.36,6.1 -60.81,22.91 -81.91,45.55 -19.71,21.15 -33.92,47.57 -39.64,76 -4.75,23.58 -3.45,60.06 -3.45,85 0,0 0,134 0,134 0,26.11 -1.47,66.55 3.45,91 2.58,12.85 6.47,23.03 11.55,35 0,0 -59,0 -59,0 z M 750,270 c 0,0 0,169 0,169 0,0 0,192 0,192 0.07,15.2 5.37,18.98 20,19 0,0 81,0 81,0 15.2,-0.07 18.98,-5.37 19,-20 0,0 0,-369 0,-369 0,0 0,-91 0,-91 -0.02,-15.58 -4.42,-19.98 -20,-20 0,0 -137,0 -137,0 0,0 -25,0 -25,0 -5.86,0.07 -11.67,0.78 -15.28,6.04 -2.73,4 -2.71,9.32 -2.72,13.96 0,0 0,81 0,81 0.07,15.2 5.37,18.98 20,19 0,0 60,0 60,0 z m -507,0.12 c 0,0 27,0 27,0 0,0 49,0 49,0 0,0 150,0 150,0 27.72,-0.08 50.96,23.16 51,50.88 0,0 0,158 0,158 -0.04,28.14 -22.86,50.96 -51,51 0,0 -218,0 -218,0 -28.14,-0.04 -50.96,-22.86 -51,-51 0,0 0,-158 0,-158 0.04,-26.14 18.05,-45.14 43,-50.88 z m 611,550.03 c 0,0 70,0 70,0 0,0 134,0 134,0 33.22,-0.1 61.95,28.63 62,61.85 0,0 0,196 0,196 -0.05,33.22 -28.78,61.95 -62,62 0,0 -196,0 -196,0 -33.22,-0.05 -61.95,-28.78 -62,-62 0,0 0,-196 0,-196 0.05,-31.42 23.92,-55.93 54,-61.85 z"
     style="fill:#fc660c;fill-opacity:1;stroke:none"
     inkscape:label="bi-so logo" />
</svg>
